<svg width="390" height="73" viewBox="0 0 390 73" xmlns="http://www.w3.org/2000/svg"><title>blanc</title><g fill="none"><path d="M375.2 30c3.5-1.8 5.6-3.9 6.4-6.4.9-3-.3-6.4-3.5-10-2.8-3.2-5.6-4.3-8.5-3.5-2.4.7-4.7 2.7-6.8 6-1.8 2.8-3.2 6.1-4.2 9.6-.9 3.4-1.2 5.9-.7 7.3 1.4.5 3.8.5 7.3 0 3.8-.5 7.2-1.5 10-3zm-19.3-14.7c1.8-3.5 2.2-6.5 1.3-8.9-1.1-3-4-5-8.8-6-4.1-.9-7.1-.2-8.9 2.2-1.5 2-2.2 4.9-1.9 8.9.2 3.4 1 6.8 2.4 10.3 1.3 3.3 2.5 5.4 3.8 6.3 1.4-.4 3.4-1.9 5.8-4.3 2.8-2.9 4.8-5.7 6.3-8.5zm21.9 39.3c3.9.6 6.8.1 8.9-1.5 2.5-1.9 3.4-5.3 2.9-10.2-.4-4.2-2.1-6.7-4.9-7.7-2.4-.8-5.4-.5-9 1-3.1 1.3-6.1 3.1-8.9 5.4-2.7 2.2-4.3 4.1-4.7 5.6.9 1.2 2.8 2.6 5.9 4.2 3.3 1.7 6.6 2.8 9.8 3.2zM2.5 40.6c-.2-.5-.2-.7-.2-1 0-.2.1-.6.2-1 1.7-1.5 6.5-3.7 11.8-3.8 1.2 0 1.4 0 2.7.1 6.1.4 8.1 4.2 8.1 10.8V49c0 2.8 0 5.8-.1 8.6 0 1.7-.1 5.2-.1 6.5 0 0-.2 3.4 2.1 3-.1 1.1-.2 2.8-.2 3.3-.7 1-2.4 2.1-4.7 2.1-1.8 0-3.6-1.1-4.6-2.2-.4.3-1.2.8-1.7 1.1-1.8.9-3.7 1.1-5.9 1.1-5 0-9.9-3.2-9.9-10.2 0-9.2 8.5-11.9 13.3-12.4.7-.1 1.5-.1 2.2-.1.7 0 1.2 0 1.7.1v-3.7c0-3.2-.3-4.9-2.8-4.9-2.4 0-5.4 1.1-7.6 1.9-.8.4-1.7.6-2.8.6-1.1-1.2-1.4-2.5-1.5-3.2zM17.2 60v-5h-.8c-.8 0-1.6.1-2.4.2h.1c-3.3.6-6.1 2.1-6.1 6.5 0 3.5 1.4 4.8 3.3 4.9h.5c2 0 4.3-1 5.2-2.2l-.1.1c0 .1.1-.5.2-.9.1-1 .1-2.1.1-3.6zm26.1 7.2c-.1 1.1-.2 2.9-.2 3.3-.8 1.1-2.4 2.1-4.7 2.1-1.1 0-2.2-.5-3-1.1-1.4-1-2.2-2.5-2.2-4V28.7c0-3.7-.1-6.2-.2-8.4.9-2.1 3.7-2.4 7.5-2.4.5 1.7.5 3.5.5 7.4v38.9c.1 0-.1 3.5 2.3 3zM62.1 35c4.8.4 7.1 2.4 7.4 3.4 0 1-.7 2.8-1.5 3.9-.3-.1-1.1-.2-1.5-.3-.8-.2-1.7-.3-2.5-.6-1.1-.5-2.3-.7-3.4-.7-2.7 0-4.3 1.4-4.3 3.5 0 1.2.5 2.3 2.1 3.6.8.6 2 1.4 3.2 2.3 1.4 1.1 3.1 2.3 4.4 3.3 3.2 2.7 4.7 5.3 4.7 8.5 0 7.2-5.9 10.9-13.3 10.9-4.9 0-9.2-1.5-10.1-3.7 0-1.1.6-2.9 1.5-4.1h.8c.7 0 1.4.2 2.3.7v-.1c1.6.7 3.6 1.2 5.4 1.2.4 0 .9-.1 1.4-.2 2.3-.2 3.7-1.8 3.7-4.1 0-1.7-.8-3.1-2.9-4.6-.3-.2-1.1-.8-.9-.6-1.7-1.2-3.7-2.8-5.2-4l-1.9-1.5c-2.4-2.4-3.5-4.7-3.5-7.4 0-6 4.9-9.6 12.2-9.6.5 0 1.4.1 1.9.2zm14.4 5.6c-.2-.5-.2-.7-.2-1 0-.2.1-.6.2-1 1.7-1.5 6.5-3.7 11.8-3.8 1.2 0 1.4 0 2.7.1 6.1.4 8.1 4.2 8.1 10.8V49c0 2.8 0 5.8-.1 8.6 0 1.7-.1 5.2-.1 6.5 0 0-.2 3.4 2.1 3-.1 1.1-.2 2.8-.2 3.3-.7 1-2.4 2.1-4.7 2.1-1.8 0-3.6-1.1-4.6-2.2-.4.3-1.2.8-1.7 1.1-1.8.9-3.7 1.1-5.9 1.1-5.2 0-10.1-3.2-10.1-10.3 0-9.2 8.5-11.9 13.3-12.4.7-.1 1.5-.1 2.2-.1.7 0 1.2 0 1.7.1v-3.7c0-3.2-.3-4.9-2.8-4.9-2.4 0-5.4 1.1-7.6 1.9-.8.4-1.7.6-2.8.6-.9-1.1-1.2-2.4-1.3-3.1zM91.2 60v-5h-.8c-.8 0-1.6.1-2.4.2h.1c-3.3.6-6.1 2.1-6.1 6.5 0 3.5 1.4 4.8 3.3 4.9h.5c2 0 4.3-1 5.2-2.2l-.1.1c0 .1.1-.5.2-.9.1-1 .1-2.1.1-3.6zm39.5-21.8c0 1-.5 2.8-1.2 4.1h-.9c-.8 0-1.6-.2-2.5-.5-1.2-.5-2.7-.9-4-.9-.2 0-.5 0-.8.1-4.4.4-7.5 4.3-7.5 13.1 0 10.5 4.3 12.7 8.8 12.7 2.4 0 5-.8 7-1.8.4 1.1.7 2.4.7 2.9-.1 1.1-.9 2.4-2 3.3-1.5 1.1-4.1 1.7-7.1 1.7-8.4 0-15.8-3.1-15.8-18.4 0-8 2.7-13 5.7-15.8 3-2.8 7-3.7 10.8-3.7 4.7-.2 8.4 2.1 8.8 3.2zm13.4 5.7v24c0 1.2-.1 2.1-.8 3.1-1.2.9-2.4 1-7.3 1 .1-4 .2-9.2.2-15.1l.1-12.7c0-2.4-.5-4.2-1-5.7.6-.6 1.6-1.2 3.3-1.9.5-.2.8-.2 1.1-.2 1.6 0 2.3.5 2.7 1.5 1.4-1 3-1.7 4.5-2.2 1.3-.5 3-.8 4.4-.6 2.2.2 3.6 1 3.8 2.1 0 1.1-.3 3.3-1.4 4.8-.5.2-.5.2-1.2.2-.8 0-1.6-.1-2.2-.2-.5-.2-.8-.2-1-.2-2.1.1-3.8.6-5.2 2.1zm38.6 20.3c.5 1.4.7 3 .8 3.8-.1 1.6-2.6 3.3-4.9 4h.1c-1.1.3-3.5.8-5.9.8-3.8 0-7.7-.7-10.7-3.7-2.8-2.9-4.2-7.7-4.2-13.9 0-14.8 6.4-20.2 15.1-20.2 7.2 0 11 4.3 11.6 10.9.1 1.1.2 2.4.2 3.7 0 1.7-.2 3.3-.4 4.5-.9.8-3.7 1.7-5.9 2.1-2.4.3-6.2.5-9.8.5-1.2 0-1.4.1-2.7 0 .2 7.6 3.3 10 8.1 10 2.8-.3 5.7-.9 8.6-2.5zm-10.9-23.8c-2.7.4-5.4 3.6-5.9 10.4h2.1c2.7 0 5.8-.1 7.3-.2.4-.1.8-.1 1.1-.3.2-.5.3-1.4.3-2.3 0-.3-.1-.5-.1-.8v-.8c-.4-4-1.8-6-4.6-6h-.2zm18.9.2c-.2-.5-.2-.7-.2-1 0-.2.1-.6.2-1 1.7-1.5 6.5-3.7 11.8-3.8 1.2 0 1.4 0 2.7.1 6.1.4 8.1 4.2 8.1 10.8V49c0 2.8 0 5.8-.1 8.6 0 1.7-.1 5.2-.1 6.5 0 0-.2 3.4 2.1 3-.1 1.1-.2 2.8-.2 3.3-.7 1-2.4 2.1-4.7 2.1-1.8 0-3.6-1.1-4.6-2.2-.4.3-1.2.8-1.7 1.1-1.8.9-3.7 1.1-5.9 1.1-5.2 0-10.1-3.2-10.1-10.3 0-9.2 8.5-11.9 13.3-12.4.7-.1 1.5-.1 2.2-.1.7 0 1.2 0 1.7.1v-3.7c0-3.2-.3-4.9-2.8-4.9-2.4 0-5.4 1.1-7.6 1.9-.8.4-1.7.6-2.8.6-.9-1.1-1.2-2.4-1.3-3.1zM205.4 60v-5h-.8c-.8 0-1.6.1-2.4.2h.1c-3.3.6-6.1 2.1-6.1 6.5 0 3.5 1.4 4.8 3.3 4.9h.5c2 0 4.3-1 5.2-2.2l-.1.1c0 .1.1-.5.2-.9.1-1 .1-2.1.1-3.6zm35 5.6c.1.5.2 1.1.2 1.7 0 .7 0 1.5-.1 2.1-.2.5-.5 1-1.1 1.4-1.8 1.1-4.6 1.8-7.1 1.8-7.6 0-9.1-6.8-9.1-13V41.7c-2.1-.1-3.4-.5-4.5-1.1 0-2.2.1-2.2.7-2.8 1.1-.8 2.3-1.1 3.3-1.4.6-.2.8 0 1.2-.2.1-2.1.3-4.5.4-6.6.6-1.7 2.6-3.2 7.2-3.5v1.2c-.1 3.2-.2 5.6-.2 8.5h9.7c-.2 4.3-.8 5.2-2.4 5.6-.5.1-1.3.2-1.9.2-1.5.1-2.6.1-5.4.1-.1 3.3-.2 6.6-.2 9.8 0 1.7.1 3.3.1 4.9V60c.3 4 .8 6.8 3.3 6.8 1 .1 4-1 4.6-1.4l1.3.2zm10.2-47c3.6 0 4.3 1.5 4.2 4.4-.1 2.9-1 4.9-4.6 4.9-3.1 0-4.3-1.4-4.3-4.7 0-3 1.5-4.6 4.7-4.6zm3 17.2c.6 1.2.7 2.3.7 5.5v25.5c0 1.7-.3 3-1.1 4.2-.5.8-1.8.8-7.1 1v-6.2c0-2.2.1-4.6.1-7V45.5c0-3.4-.1-5.8-.2-7.8.9-1.9 3.5-2.1 6.9-2.1l.7.2zm22 36.9c-9.7 0-15.2-5.6-15.2-18.9 0-13.1 6.4-19.1 15.4-19.1 10 0 15 6.4 15 18.6 0 12.9-6.5 19.4-15.2 19.4zm.1-5.6c3.6 0 6.7-3.4 6.7-13.5 0-9.5-2.7-13.1-6.8-13.1-3.6 0-6.8 3.6-6.8 13 0 10.2 3 13.6 6.9 13.6zm29.2-23l.2-.2v23.4c0 1.7-.2 2.6-.9 3.7-1.1.9-1.9.9-5.3 1h-2c.1-4 .2-9.2.2-15V44.2c0-2.4-.3-4.2-.8-5.7.5-.6 1.5-1.2 3.2-1.9.5-.2.9-.2 1.1-.2 1.4 0 2.3.7 2.7 1.6 1.5-1.1 3.1-1.8 4.5-2.3 1.6-.5 3.1-.8 4.9-.8 9.5 0 11.3 4.9 11.3 13.5v11.5c0 4.1.1 7.8.2 10.8-1 .9-2.4 1.2-7.4 1.2-.6-1.1-.8-2.3-.8-3.4V48.6c0-5.5-1.3-7.5-5.2-7.5-2.4 0-4.4 1.3-5.9 3zm40-9.1c4.8.4 7.1 2.4 7.4 3.4 0 1-.7 2.8-1.5 3.9-.3-.1-1.1-.2-1.5-.3-.8-.2-1.7-.3-2.5-.6-1.1-.5-2.3-.7-3.4-.7-2.7 0-4.3 1.4-4.3 3.5 0 1.2.5 2.3 2.1 3.6.8.6 2 1.4 3.2 2.3 1.4 1.1 3.1 2.3 4.4 3.3 3.2 2.7 4.7 5.3 4.7 8.5 0 7.2-5.9 10.9-13.3 10.9-4.9 0-9.2-1.5-10.1-3.7 0-1.1.6-2.9 1.5-4.1h.8c.7 0 1.4.2 2.3.7v-.1c1.6.7 3.6 1.2 5.4 1.2.4 0 .9-.1 1.4-.2 2.3-.2 3.7-1.8 3.7-4.1 0-1.7-.8-3.1-2.9-4.6-.3-.2-1.1-.8-.9-.6-1.8-1.2-3.7-2.8-5.2-4l-1.9-1.5c-2.4-2.4-3.5-4.7-3.5-7.4 0-6 4.9-9.6 12.2-9.6.5 0 1.4.1 1.9.2zm-178.2-5.6s.8-5.2 3-8.3c2.5-3.4 6.3-5.3 8.9-2.1 1.9 2.3 1.4 4.7-2.6 7.3-4.9 3.1-9.3 3.1-9.3 3.1z" fill="#FFF"/><path d="M346.7 12.6c-1.5-.3-2.5 0-3.1.8-.5.7-.8 1.7-.7 3.1.1 1.2.3 2.4.8 3.6.4 1.2.9 1.9 1.3 2.2.5-.2 1.2-.7 2-1.5 1-1 1.7-1.9 2.2-2.9.6-1.2.8-2.2.5-3.1-.3-1.1-1.4-1.8-3-2.2zm30.7 32.5c-.2-1.5-.7-2.4-1.7-2.7-.8-.3-1.9-.2-3.2.3-1.1.5-2.2 1.1-3.1 1.9-.9.8-1.5 1.4-1.7 2 .3.4 1 .9 2.1 1.4 1.2.6 2.4 1 3.5 1.2 1.3.2 2.4 0 3.1-.5.8-.8 1.2-1.9 1-3.6zm-8-22.6c-1-1.1-2-1.5-3-1.2-.8.2-1.6.9-2.4 2.1-.6 1-1.1 2.1-1.4 3.4-.3 1.2-.4 2-.2 2.5.5.2 1.3.2 2.5 0 1.3-.2 2.5-.5 3.5-1.1 1.2-.6 2-1.3 2.2-2.2.3-1.1-.1-2.3-1.2-3.5z" fill="#000"/></g></svg>