<svg width="243" height="36" viewBox="0 0 243 36" xmlns="http://www.w3.org/2000/svg"><title>Group 11</title><g fill="none" fill-rule="evenodd"><rect stroke="#28C4B0" stroke-width="1.89" x="63.898" y="1.158" width="33.154" height="33.684" rx="1.68"/><rect stroke="#28C4B0" stroke-width="1.89" x="72.712" y="10.105" width="24.341" height="24.737" rx="1.68"/><rect stroke="#28C4B0" stroke-width="1.89" x="81.315" y="18.838" width="15.737" height="16.003" rx="1.68"/><path d="M24.3.213h2.518v35.596h-2.203V3.843l-11.206 17.83L2.203 3.843v31.966H0V.213h2.518L13.41 17.47 24.3.213zm28.665 0h2.644L44.15 17.788v18.085h-2.203V17.788L30.428.213h2.644l9.946 15.22L52.965.212zm62.995 35.383h-9.317V.191h9.317c2.644 0 5.288.955 7.492 2.675 2.203 1.719 3.714 4.075 4.154 6.495.945 4.712.945 12.353 0 17.065-.944 5.095-6.169 9.17-11.646 9.17zM108.846 2.42v30.947h7.114c4.344 0 8.75-3.375 9.506-7.386.881-4.458.881-11.717 0-16.175-.755-4.011-5.1-7.386-9.506-7.386h-7.114zm38.78 14.391v2.229H136.86v14.327h14.794v2.23h-16.998V.126h16.998v2.23H136.86V16.81h10.765zM179.669.191h2.33l-11.647 35.596h-2.518L156.06.191h2.33l10.702 32.412L179.669.191zM190.182 0v35.787h-2.203V0h2.203zm21.467 35.532h-1.196c-2.644 0-5.288-.891-7.491-2.61-2.204-1.783-3.652-4.076-4.155-6.56-.945-4.648-.945-12.29 0-17.001.503-2.484 1.951-4.776 4.155-6.495 2.203-1.72 4.847-2.675 7.491-2.675h1.196c3.21 0 6.61 1.465 8.94 4.012l-1.637 1.528c-1.889-2.101-4.659-3.311-7.303-3.311h-1.196c-4.344 0-8.687 3.375-9.506 7.386-.881 4.458-.881 11.717 0 16.111.819 4.012 5.162 7.387 9.506 7.387h1.196c2.707 0 5.477-1.274 7.366-3.375l1.637 1.528c-2.33 2.547-5.73 4.075-9.003 4.075zm27.322-18.72v2.228h-10.765v14.327H243v2.23h-16.997V.126H243v2.23h-14.794V16.81h10.765z" fill="#4A4A4A"/></g></svg>