<svg xmlns="http://www.w3.org/2000/svg" width="1940" height="30" viewBox="0 0 1940 30"><g fill="#FFF"><path d="M0 0h1v3H0zm10 0h1v3h-1zm10 0h1v3h-1zm10 0h1v3h-1zm10 0h1v3h-1zm10 0h1v3h-1zm10 0h1v3h-1zm10 0h1v3h-1zm10 0h1v3h-1zm10 0h1v3h-1zm10 0h1v3h-1zm10 0h1v3h-1zm10 0h1v3h-1zm10 0h1v3h-1zm10 0h1v3h-1zm10 0h1v3h-1zm10 0h1v3h-1zm10 0h1v3h-1zm10 0h1v3h-1zm10 0h1v3h-1zm10 0h1v3h-1zm10 0h1v3h-1zm10 0h1v3h-1zm10 0h1v3h-1zm10 0h1v3h-1zm10 0h1v3h-1zm10 0h1v3h-1zm10 0h1v3h-1zm10 0h1v3h-1zm10 0h1v3h-1zm10 0h1v3h-1zm10 0h1v3h-1zm10 0h1v3h-1zm10 0h1v3h-1zm10 0h1v3h-1zm10 0h1v3h-1zm10 0h1v3h-1zm10 0h1v3h-1zm10 0h1v3h-1zm10 0h1v3h-1zm10 0h1v3h-1zm10 0h1v3h-1zm10 0h1v3h-1zm10 0h1v3h-1zm10 0h1v3h-1zm10 0h1v3h-1zm10 0h1v3h-1zm10 0h1v3h-1zm10 0h1v3h-1zm10 0h1v3h-1zm10 0h1v3h-1zm10 0h1v3h-1zm10 0h1v3h-1zm10 0h1v3h-1zm10 0h1v3h-1zm10 0h1v3h-1zm10 0h1v3h-1zm10 0h1v3h-1zm10 0h1v3h-1zm10 0h1v3h-1zm10 0h1v3h-1zm10 0h1v3h-1zm10 0h1v3h-1zm10 0h1v3h-1zm10 0h1v3h-1zm10 0h1v3h-1zm10 0h1v3h-1zm10 0h1v3h-1zm10 0h1v3h-1zm10 0h1v3h-1zm10 0h1v3h-1zm10 0h1v3h-1zm10 0h1v3h-1zm10 0h1v3h-1zm10 0h1v3h-1zm10 0h1v3h-1zm10 0h1v3h-1zm10 0h1v3h-1zm10 0h1v3h-1zm10 0h1v3h-1zm10 0h1v3h-1zm10 0h1v3h-1zm10 0h1v3h-1zm10 0h1v3h-1zm10 0h1v3h-1zm10 0h1v3h-1zm10 0h1v3h-1zm10 0h1v3h-1zm10 0h1v3h-1zm10 0h1v3h-1zm10 0h1v3h-1zm10 0h1v3h-1zm10 0h1v3h-1zm10 0h1v3h-1zm10 0h1v3h-1zm10 0h1v3h-1zm10 0h1v3h-1zm10 0h1v3h-1zm10 0h1v3h-1zm10 0h1v3h-1zm10 0h1v3h-1zm10 0h1v3h-1zm10 0h1v3h-1zm10 0h1v3h-1zm10 0h1v3h-1zm10 0h1v3h-1zm10 0h1v3h-1zm10 0h1v3h-1zm10 0h1v3h-1zm10 0h1v3h-1zm10 0h1v3h-1zm10 0h1v3h-1zm10 0h1v3h-1zm10 0h1v3h-1zm10 0h1v3h-1zm10 0h1v3h-1zm10 0h1v3h-1zm10 0h1v3h-1zm10 0h1v3h-1zm10 0h1v3h-1zm10 0h1v3h-1zm10 0h1v3h-1zm10 0h1v3h-1zm10 0h1v3h-1zm10 0h1v3h-1zm10 0h1v3h-1zm10 0h1v3h-1zm10 0h1v3h-1zm10 0h1v3h-1zm10 0h1v3h-1zm10 0h1v3h-1zm10 0h1v3h-1zm10 0h1v3h-1zm10 0h1v3h-1zm10 0h1v3h-1zm10 0h1v3h-1zm10 0h1v3h-1zm10 0h1v3h-1zm10 0h1v3h-1zm10 0h1v3h-1zm10 0h1v3h-1zm10 0h1v3h-1zm10 0h1v3h-1zm10 0h1v3h-1zm10 0h1v3h-1zm10 0h1v3h-1zm10 0h1v3h-1zm10 0h1v3h-1zm10 0h1v3h-1zm10 0h1v3h-1zm10 0h1v3h-1zm10 0h1v3h-1zm10 0h1v3h-1zm10 0h1v3h-1zm10 0h1v3h-1zm10 0h1v3h-1zm10 0h1v3h-1zm10 0h1v3h-1zm10 0h1v3h-1zm10 0h1v3h-1zm10 0h1v3h-1zm10 0h1v3h-1zm10 0h1v3h-1zm10 0h1v3h-1zm10 0h1v3h-1zm10 0h1v3h-1zm10 0h1v3h-1zm10 0h1v3h-1zm10 0h1v3h-1zm10 0h1v3h-1zm10 0h1v3h-1zm10 0h1v3h-1zm10 0h1v3h-1zm10 0h1v3h-1zm10 0h1v3h-1zm10 0h1v3h-1zm10 0h1v3h-1zm10 0h1v3h-1zm10 0h1v3h-1zm10 0h1v3h-1z"/><path d="M1600 0h1v3h-1zm10 0h1v3h-1zm10 0h1v3h-1zm10 0h1v3h-1zm10 0h1v3h-1zm10 0h1v3h-1zm10 0h1v3h-1zm10 0h1v3h-1zm10 0h1v3h-1zm10 0h1v3h-1zm10 0h1v3h-1zm10 0h1v3h-1zm10 0h1v3h-1zm10 0h1v3h-1zm10 0h1v3h-1zm10 0h1v3h-1zm10 0h1v3h-1zm10 0h1v3h-1zm10 0h1v3h-1zm10 0h1v3h-1zm10 0h1v3h-1z"/><path d="M1800 0h1v3h-1zm10 0h1v3h-1zm10 0h1v3h-1zm10 0h1v3h-1zm10 0h1v3h-1zm10 0h1v3h-1zm10 0h1v3h-1z"/><path d="M1810 0h1v3h-1zm10 0h1v3h-1zm10 0h1v3h-1zm10 0h1v3h-1zm10 0h1v3h-1zm10 0h1v3h-1zm10 0h1v3h-1z"/><path d="M1870 0h1v3h-1zm10 0h1v3h-1zm10 0h1v3h-1zm10 0h1v3h-1z"/><path d="M1880 0h1v3h-1zm10 0h1v3h-1zm10 0h1v3h-1zm10 0h1v3h-1z"/><path d="M1910 0h1v3h-1z"/></g><path d="M240 0h1v10h-1zm80 0h1v10h-1zm40 0h1v10h-1zm120 0h1v10h-1zm60 0h1v10h-1zm36 0h1v10h-1zm24 0h1v10h-1zm40 0h1v10h-1zm80 0h1v10h-1zm48 0h1v10h-1zm32 0h1v10h-1zm180 0h1v10h-1zm44 0h1v10h-1zm56 0h1v10h-1zm200 0h1v10h-1zm86 0h1v10h-1zm234 0h1v10h-1zm320 0h1v10h-1z" fill="#FFF"/><g fill="#FFF" font-family="Arial" font-size="11"><text transform="translate(.608 24.44)">0</text><text transform="translate(231.823 24.44)">240</text><text transform="translate(311.823 24.44)">320</text><text transform="translate(350.823 24.44)">360</text><text transform="translate(471.823 24.44)">480</text><text transform="translate(530.823 24.44)">540</text><text transform="translate(567.823 24.44)">576</text><text transform="translate(590.823 24.44)">600</text><text transform="translate(630.823 24.44)">640</text><text transform="translate(711.823 24.44)">720</text><text transform="translate(759.823 24.44)">768</text><text transform="translate(791.823 24.44)">800</text><text transform="translate(970.823 24.44)">980</text><text transform="translate(1011.765 24.44)">1024</text><text transform="translate(1068.765 24.44)">1080</text><text transform="translate(1267.765 24.44)">1280</text><text transform="translate(1353.765 24.44)">1366</text><text transform="translate(1587.765 24.44)">1600</text><text transform="translate(1908.765 24.44)">1920</text></g></svg>